<svg id="Button_Home" data-name="Button Home" xmlns="http://www.w3.org/2000/svg" xmlns:xlink="http://www.w3.org/1999/xlink" viewBox="0 0 201.9 61.4"><defs><linearGradient id="Degradado_sin_nombre_77" x1="192.85" y1="26.91" x2="0.02" y2="26.91" gradientUnits="userSpaceOnUse"><stop offset="0" stop-color="#9b7944"/><stop offset="0.38" stop-color="#bb9151"/><stop offset="1" stop-color="#715834"/></linearGradient><linearGradient id="Degradado_sin_nombre_41" x1="0.29" y1="54.11" x2="12.17" y2="54.11" gradientUnits="userSpaceOnUse"><stop offset="0" stop-color="#9b7944"/><stop offset="1" stop-color="#bb9151"/></linearGradient><linearGradient id="Degradado_sin_nombre_41-2" x1="199.93" y1="5.89" x2="188.01" y2="5.89" xlink:href="#Degradado_sin_nombre_41"/><linearGradient id="Degradado_sin_nombre_21" x1="19.24" y1="5.32" x2="70.78" y2="48.57" gradientUnits="userSpaceOnUse"><stop offset="0" stop-color="#fed692" stop-opacity="0.09"/><stop offset="0.05" stop-color="#fed693" stop-opacity="0.11"/><stop offset="0.12" stop-color="#fed895" stop-opacity="0.17"/><stop offset="0.19" stop-color="#feda99" stop-opacity="0.27"/><stop offset="0.27" stop-color="#fedd9f" stop-opacity="0.4"/><stop offset="0.34" stop-color="#ffe1a6" stop-opacity="0.58"/><stop offset="0.43" stop-color="#ffe6af" stop-opacity="0.79"/><stop offset="0.5" stop-color="#ffebb8"/><stop offset="0.56" stop-color="#ffe6af" stop-opacity="0.78"/><stop offset="0.62" stop-color="#fee1a6" stop-opacity="0.58"/><stop offset="0.68" stop-color="#fedd9f" stop-opacity="0.4"/><stop offset="0.75" stop-color="#fed999" stop-opacity="0.26"/><stop offset="0.81" stop-color="#fdd694" stop-opacity="0.14"/><stop offset="0.88" stop-color="#fdd591" stop-opacity="0.06"/><stop offset="0.94" stop-color="#fdd38f" stop-opacity="0.02"/><stop offset="1" stop-color="#fdd38e" stop-opacity="0"/></linearGradient><linearGradient id="Degradado_sin_nombre_54" x1="7.92" y1="0.93" x2="193.76" y2="0.93" gradientUnits="userSpaceOnUse"><stop offset="0" stop-color="#906c3e"/><stop offset="1" stop-color="#fdd38e"/></linearGradient><linearGradient id="Degradado_sin_nombre_54-2" x1="13.01" y1="6.74" x2="188.98" y2="6.74" xlink:href="#Degradado_sin_nombre_54"/><linearGradient id="Degradado_sin_nombre_71" x1="7.39" y1="59.65" x2="7.39" y2="59.65" gradientUnits="userSpaceOnUse"><stop offset="0" stop-color="#a18154"/><stop offset="1" stop-color="#fdd38e"/></linearGradient><linearGradient id="Degradado_sin_nombre_71-2" x1="-0.67" y1="54.11" x2="12.72" y2="54.11" xlink:href="#Degradado_sin_nombre_71"/></defs>
	<title>button_hover</title><g id="Hover"><path d="M188,5.8H12a6.7,6.7,0,0,1-2,3.5,8.1,8.1,0,0,1-3.8,2.1V48.2L0,53.4V7.2H.1A18.3,18.3,0,0,0,4.2,4.2,19.1,19.1,0,0,0,7,.4H192.9Z" transform="translate(1 0.9)" fill="url(#Degradado_sin_nombre_77)"/><path d="M7.4,59.7H193a17.4,17.4,0,0,1,3.3-4.2,15.7,15.7,0,0,1,3.6-2.5V6.9l-6,4.5V48.1a7.2,7.2,0,0,0-3.8,1.9,7.9,7.9,0,0,0-2.2,3.7H12.2Z" transform="translate(1 0.9)" fill="#f7f7d4"/><path d="M12.2,53.7a8.8,8.8,0,0,0-2.5-3.9,8.2,8.2,0,0,0-3.4-1.6l-6,5.2a15.1,15.1,0,0,1,4.2,2.8A13.6,13.6,0,0,1,7.4,60Z" transform="translate(1 0.9)" fill="url(#Degradado_sin_nombre_41)"/><path d="M193.9,11.4a7.1,7.1,0,0,1-3.4-1.6A7.9,7.9,0,0,1,188,5.9L192.8.4a16.2,16.2,0,0,0,2.6,3.4,15.1,15.1,0,0,0,4.5,3.1Z" transform="translate(1 0.9)" fill="url(#Degradado_sin_nombre_41-2)"/><path d="M187.9,53.7H12.2a8.8,8.8,0,0,0-2.5-3.9,9.8,9.8,0,0,0-3.4-1.6h0V11.4h0A8.2,8.2,0,0,0,10.3,9,5.9,5.9,0,0,0,12,5.8H188a7.2,7.2,0,0,0,2.5,3.9,7.1,7.1,0,0,0,3.4,1.6h0V48.1h0a8.8,8.8,0,0,0-4.2,2.4,7.7,7.7,0,0,0-1.7,3.2Z" transform="translate(1 0.9)" fill="#a18154"/>
	<g><path id="Glow" d="M61,59.7a.2.2,0,0,0,.2-.2,79.7,79.7,0,0,0,8.6-10.2C82.1,32.5,98,13.4,95.3-.3c-.1-.2-11,0-11.2,0H24.2A87.3,87.3,0,0,0,15.6,10C3.4,26.9-1.7,45.6,1,59.4a.4.4,0,0,0,.4.3Z" transform="translate(1 0.9)" fill="url(#Degradado_sin_nombre_21)"/>
			<animateTransform attributeName="transform"
				  type="translate"
				  from="-100 0"
				  to="250 0"
				  begin="0s"
				  dur="1.9s"
				  repeatCount="indefinite"/>
		<animate attributeName="opacity"
					values="0; 0.2; 0.7; 0.1; 0;"
					dur="1.9s"
					repeatCount="indefinite"/>
		</g>
		<line x1="7.9" y1="1" x2="193.8" y2="0.9" fill="none" stroke-miterlimit="10" stroke="url(#Degradado_sin_nombre_54)"/><line x1="1" y1="7.7" x2="1.2" y2="53.9" fill="none" stroke="#906c3e" stroke-miterlimit="10"/><line x1="200.9" y1="7.5" x2="200.9" y2="53.5" fill="none" stroke="#fdd38e" stroke-miterlimit="10"/><line x1="8.4" y1="60.5" x2="194" y2="60.3" fill="none" stroke="#fdd38e" stroke-miterlimit="10"/><line x1="7.2" y1="12.3" x2="7.3" y2="49.1" fill="none" stroke="#906c3e" stroke-miterlimit="10"/><line x1="13" y1="6.7" x2="189" y2="6.8" fill="none" stroke-miterlimit="10" stroke="url(#Degradado_sin_nombre_54-2)"/><line x1="194.9" y1="12.3" x2="194.7" y2="49" fill="none" stroke="#fdd38e" stroke-miterlimit="10"/><line x1="13.1" y1="54.6" x2="188.9" y2="54.6" fill="none" stroke="#fdd38e" stroke-miterlimit="10"/><path d="M0,6.8" transform="translate(1 0.9)" fill="none" stroke="#906c3e" stroke-miterlimit="10"/><path d="M6.2,11.4,0,6.8A15.9,15.9,0,0,0,4.2,3.9,18,18,0,0,0,7,.1H7l5,5.7h0A5.9,5.9,0,0,1,10.3,9a8.2,8.2,0,0,1-4.1,2.4Z" transform="translate(1 0.9)" fill="none" stroke="#906c3e" stroke-miterlimit="10"/><path d="M7.4,59.6" transform="translate(1 0.9)" fill="none" stroke-miterlimit="10" stroke="url(#Degradado_sin_nombre_71)"/><path d="M12.2,53.7,7.4,59.6a15.3,15.3,0,0,0-3.1-3.9,15.5,15.5,0,0,0-4-2.6h0l6-4.9h0a9.8,9.8,0,0,1,3.4,1.6,8.8,8.8,0,0,1,2.5,3.9Z" transform="translate(1 0.9)" fill="none" stroke-miterlimit="10" stroke="url(#Degradado_sin_nombre_71-2)"/><path d="M200,52.6" transform="translate(1 0.9)" fill="none" stroke="#fdd38e" stroke-miterlimit="10"/><path d="M193.8,48.1l6.2,4.5a17.6,17.6,0,0,0-4.2,3,15.1,15.1,0,0,0-2.8,3.8h0l-5.1-5.7h0a7.7,7.7,0,0,1,1.7-3.2,8.8,8.8,0,0,1,4.2-2.4Z" transform="translate(1 0.9)" fill="none" stroke="#fdd38e" stroke-miterlimit="10"/><path d="M192.8,0" transform="translate(1 0.9)" fill="none" stroke="#fdd38e" stroke-miterlimit="10"/><path d="M188,5.9,192.8,0a17.3,17.3,0,0,0,3.1,4,16.6,16.6,0,0,0,4,2.6h0l-6,4.8h0a7.1,7.1,0,0,1-3.4-1.6A7.2,7.2,0,0,1,188,5.9Z" transform="translate(1 0.9)" fill="none" stroke="#fdd38e" stroke-miterlimit="10"/>
	</g></svg>