<?xml version="1.0" encoding="utf-8"?>
<!-- Generator: Adobe Illustrator 24.1.0, SVG Export Plug-In . SVG Version: 6.00 Build 0)  -->
<svg version="1.1" id="Button_Home" xmlns="http://www.w3.org/2000/svg" xmlns:xlink="http://www.w3.org/1999/xlink" x="0px"
	 y="0px" viewBox="0 0 60 60" style="enable-background:new 0 0 60 60;" xml:space="preserve">
<style type="text/css">
	.st0{fill:url(#SVGID_1_);}
	.st1{fill:#F7F7D4;}
	.st2{fill:url(#SVGID_2_);}
	.st3{fill:url(#SVGID_3_);}
	.st4{fill:#A18154;}
	.st5{fill:url(#Glow_1_);}
	.st6{fill:none;stroke:url(#SVGID_4_);stroke-miterlimit:10;}
	.st7{fill:none;stroke:#906C3E;stroke-miterlimit:10;}
	.st8{fill:none;stroke:#FDD38E;stroke-miterlimit:10;}
	.st9{fill:none;stroke:url(#SVGID_5_);stroke-miterlimit:10;}
	.st10{fill:none;stroke:url(#SVGID_6_);stroke-miterlimit:10;}
	.st11{fill:none;stroke:url(#SVGID_7_);stroke-miterlimit:10;}
</style>
<g id="Hover">
	
		<linearGradient id="SVGID_1_" gradientUnits="userSpaceOnUse" x1="52.2797" y1="36.3868" x2="-0.5" y2="36.3868" gradientTransform="matrix(1 0 0 -1 1 63.5)">
		<stop  offset="0" style="stop-color:#9B7944"/>
		<stop  offset="0.38" style="stop-color:#BB9151"/>
		<stop  offset="1" style="stop-color:#715834"/>
	</linearGradient>
	<path class="st0" d="M48.3,6.1H12.7c-0.3,1.3-1,2.5-2,3.5c-1.1,1-2.4,1.7-3.9,2.1v36.6l-6.3,5.2V7.5h0.1c1.5-0.8,2.9-1.8,4.2-3
		c1.1-1.1,2.1-2.4,2.8-3.8h45.7L48.3,6.1z"/>
	<path class="st1" d="M8,59.7h45.4c0.9-1.6,2-3,3.4-4.2c1.1-1,2.3-1.8,3.7-2.5V7.2l-6.1,4.5v36.5c-1.5,0.2-2.8,0.9-3.9,1.9
		c-1.1,1-1.9,2.3-2.2,3.7H12.9L8,59.7z"/>
	
		<linearGradient id="SVGID_2_" gradientUnits="userSpaceOnUse" x1="-0.1949" y1="9.362" x2="11.8864" y2="9.362" gradientTransform="matrix(1 0 0 -1 1 63.5)">
		<stop  offset="0" style="stop-color:#9B7944"/>
		<stop  offset="1" style="stop-color:#BB9151"/>
	</linearGradient>
	<path class="st2" d="M12.9,53.7c-0.5-1.5-1.4-2.8-2.5-3.9c-1-0.8-2.2-1.3-3.5-1.6l-6.1,5.2c1.6,0.7,3,1.6,4.3,2.8
		C6.3,57.3,7.3,58.6,8,60L12.9,53.7z"/>
	
		<linearGradient id="SVGID_3_" gradientUnits="userSpaceOnUse" x1="59.4288" y1="57.2516" x2="47.3068" y2="57.2516" gradientTransform="matrix(1 0 0 -1 1 63.5)">
		<stop  offset="0" style="stop-color:#9B7944"/>
		<stop  offset="1" style="stop-color:#BB9151"/>
	</linearGradient>
	<path class="st3" d="M54.3,11.7c-1.3-0.2-2.5-0.8-3.5-1.6c-1.2-1-2.1-2.4-2.5-3.9l4.9-5.5c0.7,1.2,1.6,2.4,2.6,3.4
		c1.3,1.3,2.9,2.3,4.6,3.1L54.3,11.7z"/>
	<path class="st4" d="M48.2,53.7H12.9c-0.5-1.5-1.4-2.8-2.5-3.9c-1-0.7-2.2-1.3-3.5-1.6l0,0V11.7l0,0c1.6-0.4,3-1.2,4.1-2.4
		c0.9-0.9,1.5-2,1.7-3.2h35.6c0.4,1.5,1.3,2.9,2.5,3.9c1,0.8,2.2,1.4,3.5,1.6l0,0v36.6l0,0c-1.6,0.4-3.1,1.2-4.3,2.4
		c-0.8,0.9-1.4,2-1.7,3.2H48.2z"/>
	<g>
		
			<linearGradient id="Glow_1_" gradientUnits="userSpaceOnUse" x1="9.6343" y1="46.6655" x2="33.9628" y2="26.2502" gradientTransform="matrix(1 0 0 -1 1 63.5)">
			<stop  offset="0" style="stop-color:#FED692;stop-opacity:9.000000e-02"/>
			<stop  offset="5.000000e-02" style="stop-color:#FED693;stop-opacity:0.11"/>
			<stop  offset="0.12" style="stop-color:#FED895;stop-opacity:0.17"/>
			<stop  offset="0.19" style="stop-color:#FEDA99;stop-opacity:0.27"/>
			<stop  offset="0.27" style="stop-color:#FEDD9F;stop-opacity:0.4"/>
			<stop  offset="0.34" style="stop-color:#FFE1A6;stop-opacity:0.58"/>
			<stop  offset="0.43" style="stop-color:#FFE6AF;stop-opacity:0.79"/>
			<stop  offset="0.5" style="stop-color:#FFEBB8"/>
			<stop  offset="0.56" style="stop-color:#FFE6AF;stop-opacity:0.78"/>
			<stop  offset="0.62" style="stop-color:#FEE1A6;stop-opacity:0.58"/>
			<stop  offset="0.68" style="stop-color:#FEDD9F;stop-opacity:0.4"/>
			<stop  offset="0.75" style="stop-color:#FED999;stop-opacity:0.26"/>
			<stop  offset="0.81" style="stop-color:#FDD694;stop-opacity:0.14"/>
			<stop  offset="0.88" style="stop-color:#FDD591;stop-opacity:6.000000e-02"/>
			<stop  offset="0.94" style="stop-color:#FDD38F;stop-opacity:2.000000e-02"/>
			<stop  offset="1" style="stop-color:#FDD38E;stop-opacity:0"/>
		</linearGradient>
		<path id="Glow" class="st5" d="M9.7,59.7c0.1,0-4.9-0.1-4.9-0.2h10.2c3.2-3.1,7.1-6.5,9.8-10.1C37.2,32.7,53.4,13.7,50.6,0.1
			c-0.1-0.2-11.2,0-11.4,0H25.1c-3.2,3.2-6.1,6.6-8.7,10.2C4,27.1-1.2,45.7,1.5,59.4c0,0.2,0.2,0.3,0.4,0.3H9.7z"/>
		
			<animateTransform  accumulate="none" additive="replace" attributeName="transform" begin="0s" calcMode="linear" dur="1.9s" fill="remove" from="-100 0" repeatCount="indefinite" restart="always" to="250 0" type="translate">
			</animateTransform>
		
			<animate  accumulate="none" additive="replace" attributeName="opacity" calcMode="linear" dur="1.9s" fill="remove" repeatCount="indefinite" restart="always" values="0; 0.2; 0.7; 0.1; 0;">
			</animate>
	</g>
	
		<linearGradient id="SVGID_4_" gradientUnits="userSpaceOnUse" x1="7.5159" y1="62.1639" x2="53.1791" y2="62.1639" gradientTransform="matrix(1 0 0 -1 0 62.6)">
		<stop  offset="0" style="stop-color:#906C3E"/>
		<stop  offset="1" style="stop-color:#FDD38E"/>
	</linearGradient>
	<line class="st6" x1="7.5" y1="0.5" x2="53.2" y2="0.4"/>
	<line class="st7" x1="0.5" y1="7.1" x2="0.7" y2="53"/>
	<line class="st8" x1="60.4" y1="6.9" x2="60.4" y2="52.6"/>
	<line class="st8" x1="8" y1="59.6" x2="53.4" y2="59.4"/>
	<line class="st7" x1="6.8" y1="11.7" x2="6.9" y2="48.3"/>
	
		<linearGradient id="SVGID_5_" gradientUnits="userSpaceOnUse" x1="12.702" y1="56.4013" x2="48.298" y2="56.4013" gradientTransform="matrix(1 0 0 -1 0 62.6)">
		<stop  offset="0" style="stop-color:#906C3E"/>
		<stop  offset="1" style="stop-color:#FDD38E"/>
	</linearGradient>
	<line class="st9" x1="12.7" y1="6.1" x2="48.3" y2="6.2"/>
	<line class="st8" x1="54.3" y1="11.7" x2="54.1" y2="48.2"/>
	<line class="st8" x1="12.8" y1="53.7" x2="48.2" y2="53.7"/>
	<path class="st7" d="M0.5,7.1"/>
	<path class="st7" d="M6.8,11.7L0.5,7.1c1.6-0.7,3-1.7,4.3-2.9c1.1-1.1,2.1-2.4,2.8-3.8l0,0l5.1,5.7l0,0c-0.2,1.2-0.8,2.3-1.7,3.2
		C9.9,10.5,8.4,11.3,6.8,11.7z"/>
	
		<linearGradient id="SVGID_6_" gradientUnits="userSpaceOnUse" x1="7.0254" y1="3.8974" x2="7.0254" y2="3.8974" gradientTransform="matrix(1 0 0 -1 1 63.5)">
		<stop  offset="0" style="stop-color:#A18154"/>
		<stop  offset="1" style="stop-color:#FDD38E"/>
	</linearGradient>
	<path class="st10" d="M8,59.6"/>
	
		<linearGradient id="SVGID_7_" gradientUnits="userSpaceOnUse" x1="-1.1811" y1="9.3958" x2="12.4395" y2="9.3958" gradientTransform="matrix(1 0 0 -1 1 63.5)">
		<stop  offset="0" style="stop-color:#A18154"/>
		<stop  offset="1" style="stop-color:#FDD38E"/>
	</linearGradient>
	<path class="st11" d="M12.9,53.7L8,59.6c-0.8-1.5-1.9-2.8-3.2-3.9c-1.2-1.1-2.6-1.9-4.1-2.6l0,0l6.1-4.9l0,0
		c1.2,0.3,2.4,0.8,3.5,1.6C11.6,50.9,12.4,52.3,12.9,53.7z"/>
	<path class="st8" d="M60.5,52.6"/>
	<path class="st8" d="M54.2,48.2l6.3,4.5c-1.6,0.8-3,1.8-4.3,3c-1.1,1.1-2.1,2.4-2.8,3.8l0,0l-5.2-5.7l0,0c0.3-1.2,0.9-2.3,1.7-3.2
		C51.1,49.4,52.6,48.6,54.2,48.2L54.2,48.2z"/>
	<path class="st8" d="M53.2,0.4"/>
	<path class="st8" d="M48.3,6.2l4.9-5.9c0.8,1.5,1.9,2.8,3.2,4c1.2,1,2.6,1.9,4.1,2.6l0,0l-6.1,4.8l0,0c-1.3-0.2-2.5-0.8-3.5-1.6
		C49.6,9.1,48.7,7.8,48.3,6.2z"/>
</g>
</svg>
