<?xml version="1.0" encoding="utf-8"?>
<!-- Generator: Adobe Illustrator 24.1.0, SVG Export Plug-In . SVG Version: 6.00 Build 0)  -->
<svg version="1.1" id="Button_Home" xmlns="http://www.w3.org/2000/svg" xmlns:xlink="http://www.w3.org/1999/xlink" x="0px"
	 y="0px" viewBox="0 0 60 60" style="enable-background:new 0 0 60 60;" xml:space="preserve">
<style type="text/css">
	.st0{fill:url(#SVGID_1_);}
	.st1{fill:none;stroke:url(#SVGID_2_);stroke-miterlimit:10;}
	.st2{fill:none;stroke:url(#SVGID_3_);stroke-miterlimit:10;}
	.st3{fill:none;stroke:url(#SVGID_4_);stroke-miterlimit:10;}
	.st4{fill:none;stroke:url(#SVGID_5_);stroke-miterlimit:10;}
	.st5{fill:none;stroke:url(#SVGID_6_);stroke-miterlimit:10;}
	.st6{fill:none;stroke:url(#SVGID_7_);stroke-miterlimit:10;}
	.st7{fill:none;stroke:url(#SVGID_8_);stroke-miterlimit:10;}
	.st8{fill:none;stroke:url(#SVGID_9_);stroke-miterlimit:10;}
	.st9{fill:none;stroke:url(#SVGID_10_);stroke-miterlimit:10;}
	.st10{fill:none;stroke:url(#SVGID_11_);stroke-miterlimit:10;}
	.st11{fill:none;stroke:url(#SVGID_12_);stroke-miterlimit:10;}
	.st12{fill:none;stroke:url(#SVGID_13_);stroke-miterlimit:10;}
	.st13{fill:none;stroke:url(#SVGID_14_);stroke-miterlimit:10;}
	.st14{fill:none;stroke:#B07A3F;stroke-miterlimit:10;}
	.st15{fill:none;stroke:#7D452F;stroke-miterlimit:10;}
	.st16{fill:none;stroke:#C98A49;stroke-miterlimit:10;}
</style>
<g id="Normal">
	<g id="Button">
		
			<radialGradient id="SVGID_1_" cx="-167.2281" cy="250.3448" r="20.4393" gradientTransform="matrix(1.51 0 0 -1.43 282.4645 388.519)" gradientUnits="userSpaceOnUse">
			<stop  offset="0" style="stop-color:#270F0D"/>
			<stop  offset="1" style="stop-color:#4B2917"/>
		</radialGradient>
		<path class="st0" d="M7.4,60.2c-0.8-1.5-1.8-2.9-3.1-4c-1.2-1.1-2.5-1.9-4-2.6l0,0L0,7.4c1.5-0.8,3-1.8,4.2-3C5.3,3.3,6.3,2,7,0.6
			h45.8c0.8,1.5,1.9,2.8,3.1,3.9c1.2,1.1,2.5,1.9,4,2.6l0,0v46.1c-1.5,0.7-3,1.7-4.2,2.9c-1.1,1.1-2,2.4-2.8,3.8l0,0L7.4,60.2z"/>
		
			<linearGradient id="SVGID_2_" gradientUnits="userSpaceOnUse" x1="5.3" y1="15.1" x2="5.3" y2="15.1" gradientTransform="matrix(1 0 0 -1 1 63.5)">
			<stop  offset="0" style="stop-color:#7C452E"/>
			<stop  offset="1" style="stop-color:#B07A40"/>
		</linearGradient>
		<path class="st1" d="M6.3,48.4"/>
		
			<linearGradient id="SVGID_3_" gradientUnits="userSpaceOnUse" x1="5.2" y1="51.9" x2="5.2" y2="51.9" gradientTransform="matrix(1 0 0 -1 1 63.5)">
			<stop  offset="0" style="stop-color:#7C452E"/>
			<stop  offset="1" style="stop-color:#B07A40"/>
		</linearGradient>
		<path class="st2" d="M6.2,11.6"/>
		
			<linearGradient id="SVGID_4_" gradientUnits="userSpaceOnUse" x1="-1" y1="56.5" x2="-1" y2="56.5" gradientTransform="matrix(1 0 0 -1 1 63.5)">
			<stop  offset="0" style="stop-color:#7C452E"/>
			<stop  offset="1" style="stop-color:#B07A40"/>
		</linearGradient>
		<path class="st3" d="M0,7"/>
		
			<linearGradient id="SVGID_5_" gradientUnits="userSpaceOnUse" x1="11" y1="57.5" x2="11" y2="57.5" gradientTransform="matrix(1 0 0 -1 1 63.5)">
			<stop  offset="0" style="stop-color:#7C452E"/>
			<stop  offset="1" style="stop-color:#B07A40"/>
		</linearGradient>
		<path class="st4" d="M12,6"/>
		
			<linearGradient id="SVGID_6_" gradientUnits="userSpaceOnUse" x1="6" y1="63.2" x2="6" y2="63.2" gradientTransform="matrix(1 0 0 -1 1 63.5)">
			<stop  offset="0" style="stop-color:#7C452E"/>
			<stop  offset="1" style="stop-color:#B07A40"/>
		</linearGradient>
		<path class="st5" d="M7,0.3"/>
		
			<linearGradient id="SVGID_7_" gradientUnits="userSpaceOnUse" x1="52.8011" y1="62.35" x2="6.8989" y2="62.35" gradientTransform="matrix(1 0 0 -1 0 62.6)">
			<stop  offset="0" style="stop-color:#7C452E"/>
			<stop  offset="1" style="stop-color:#B07A40"/>
		</linearGradient>
		<line class="st6" x1="6.9" y1="0.3" x2="52.8" y2="0.2"/>
		
			<linearGradient id="SVGID_8_" gradientUnits="userSpaceOnUse" x1="-11.6511" y1="20.7489" x2="11.8511" y2="44.2511" gradientTransform="matrix(1 0 0 -1 0 62.6)">
			<stop  offset="0" style="stop-color:#7C452E"/>
			<stop  offset="1" style="stop-color:#B07A40"/>
		</linearGradient>
		<line class="st7" x1="0" y1="7" x2="0.2" y2="53.2"/>
		
			<linearGradient id="SVGID_9_" gradientUnits="userSpaceOnUse" x1="-3.21" y1="23.14" x2="15.69" y2="42.04" gradientTransform="matrix(1 0 0 -1 0 62.6)">
			<stop  offset="0" style="stop-color:#7C452E"/>
			<stop  offset="1" style="stop-color:#B07A40"/>
		</linearGradient>
		<line class="st8" x1="6.2" y1="11.6" x2="6.3" y2="48.4"/>
		
			<linearGradient id="SVGID_10_" gradientUnits="userSpaceOnUse" x1="48.0014" y1="56.55" x2="11.9986" y2="56.55" gradientTransform="matrix(1 0 0 -1 0 62.6)">
			<stop  offset="0" style="stop-color:#7C452E"/>
			<stop  offset="1" style="stop-color:#B07A40"/>
		</linearGradient>
		<line class="st9" x1="12" y1="6" x2="48" y2="6.1"/>
		
			<linearGradient id="SVGID_11_" gradientUnits="userSpaceOnUse" x1="44.4237" y1="42.0313" x2="63.1762" y2="23.2687" gradientTransform="matrix(1 0 0 -1 0 62.6)">
			<stop  offset="0" style="stop-color:#7C452E"/>
			<stop  offset="1" style="stop-color:#C98A49"/>
		</linearGradient>
		<line class="st10" x1="53.9" y1="11.6" x2="53.7" y2="48.3"/>
		
			<linearGradient id="SVGID_12_" gradientUnits="userSpaceOnUse" x1="48.1499" y1="44.5451" x2="71.7099" y2="20.9951" gradientTransform="matrix(1 0 0 -1 0 62.6)">
			<stop  offset="0" style="stop-color:#7C452E"/>
			<stop  offset="1" style="stop-color:#C98A49"/>
		</linearGradient>
		<line class="st11" x1="59.9" y1="6.8" x2="59.9" y2="52.8"/>
		
			<linearGradient id="SVGID_13_" gradientUnits="userSpaceOnUse" x1="12.1" y1="8.7" x2="47.9" y2="8.7" gradientTransform="matrix(1 0 0 -1 0 62.6)">
			<stop  offset="0" style="stop-color:#7C452E"/>
			<stop  offset="1" style="stop-color:#C98A49"/>
		</linearGradient>
		<line class="st12" x1="12.1" y1="53.9" x2="47.9" y2="53.9"/>
		
			<linearGradient id="SVGID_14_" gradientUnits="userSpaceOnUse" x1="7.3978" y1="2.9" x2="53.0022" y2="2.9" gradientTransform="matrix(1 0 0 -1 0 62.6)">
			<stop  offset="0" style="stop-color:#7C452E"/>
			<stop  offset="1" style="stop-color:#C98A49"/>
		</linearGradient>
		<line class="st13" x1="7.4" y1="59.8" x2="53" y2="59.6"/>
		<path class="st14" d="M0,7"/>
		<path class="st14" d="M6.2,11.6L0,7c1.5-0.7,3-1.7,4.2-2.9C5.3,3,6.2,1.7,7,0.3l0,0L12,6l0,0c-0.2,1.2-0.8,2.3-1.7,3.2
			C9.2,10.4,7.8,11.2,6.2,11.6z"/>
		<path class="st15" d="M7.4,59.8"/>
		<path class="st15" d="M12.2,53.9l-4.8,5.9c-0.8-1.5-1.9-2.8-3.1-3.9c-1.2-1.1-2.5-1.9-4-2.6l0,0l6-4.9l0,0
			c1.2,0.3,2.4,0.9,3.4,1.6C10.9,51.1,11.7,52.4,12.2,53.9z"/>
		<path class="st16" d="M60,52.8"/>
		<path class="st16" d="M53.8,48.3l6.2,4.5c-1.5,0.8-3,1.8-4.2,3c-1.1,1.1-2.1,2.4-2.8,3.8l0,0l-5.1-5.7l0,0
			c0.3-1.2,0.9-2.3,1.7-3.2C50.7,49.5,52.2,48.7,53.8,48.3L53.8,48.3z"/>
		<path class="st15" d="M52.8,0.2"/>
		<path class="st15" d="M48,6.1l4.8-5.9c0.8,1.5,1.9,2.8,3.1,4c1.2,1.1,2.5,1.9,4,2.6l0,0l-6,4.8l0,0c-1.3-0.2-2.4-0.8-3.4-1.6
			C49.3,9,48.4,7.6,48,6.1z"/>
	</g>
</g>
</svg>
