<svg id="Button_Home" data-name="Button Home" xmlns="http://www.w3.org/2000/svg" xmlns:xlink="http://www.w3.org/1999/xlink" viewBox="0 0 201.9 61.4"><defs><radialGradient id="Degradado_sin_nombre_27" cx="38.27" cy="-111.87" r="49.15" gradientTransform="translate(42.3 190.3) scale(1.51 1.43)" gradientUnits="userSpaceOnUse"><stop offset="0" stop-color="#270f0d"/><stop offset="1" stop-color="#4b2917"/></radialGradient><linearGradient id="Degradado_sin_nombre_44" x1="6.29" y1="48.22" x2="6.29" y2="48.22" gradientUnits="userSpaceOnUse"><stop offset="0" stop-color="#7c452e"/><stop offset="1" stop-color="#b07a40"/></linearGradient><linearGradient id="Degradado_sin_nombre_44-2" x1="6.22" y1="11.36" x2="6.22" y2="11.36" xlink:href="#Degradado_sin_nombre_44"/><linearGradient id="Degradado_sin_nombre_44-3" x1="0" y1="6.82" x2="0" y2="6.82" xlink:href="#Degradado_sin_nombre_44"/><linearGradient id="Degradado_sin_nombre_44-4" x1="12.04" y1="5.78" x2="12.04" y2="5.78" xlink:href="#Degradado_sin_nombre_44"/><linearGradient id="Degradado_sin_nombre_44-5" x1="6.95" y1="0.07" x2="6.95" y2="0.07" xlink:href="#Degradado_sin_nombre_44"/><linearGradient id="Degradado_sin_nombre_42" x1="193.76" y1="0.93" x2="7.92" y2="0.93" xlink:href="#Degradado_sin_nombre_44"/><linearGradient id="Degradado_sin_nombre_42-2" x1="-10.64" y1="42.57" x2="12.84" y2="19.09" xlink:href="#Degradado_sin_nombre_44"/><linearGradient id="Degradado_sin_nombre_42-3" x1="-2.23" y1="40.14" x2="16.67" y2="21.24" xlink:href="#Degradado_sin_nombre_44"/><linearGradient id="Degradado_sin_nombre_42-4" x1="188.98" y1="6.74" x2="13.01" y2="6.74" xlink:href="#Degradado_sin_nombre_44"/><linearGradient id="Degradado_sin_nombre_37" x1="185.41" y1="21.27" x2="204.18" y2="40.05" gradientUnits="userSpaceOnUse"><stop offset="0" stop-color="#7c452e"/><stop offset="1" stop-color="#c98a49"/></linearGradient><linearGradient id="Degradado_sin_nombre_37-2" x1="189.13" y1="18.74" x2="212.69" y2="42.29" xlink:href="#Degradado_sin_nombre_37"/><linearGradient id="Degradado_sin_nombre_30" x1="13.13" y1="54.61" x2="188.91" y2="54.61" xlink:href="#Degradado_sin_nombre_37"/><linearGradient id="Degradado_sin_nombre_30-2" x1="8.35" y1="60.42" x2="194" y2="60.42" xlink:href="#Degradado_sin_nombre_37"/></defs><title>button_base</title><g id="Normal"><g id="Button"><path d="M7.4,60a14.9,14.9,0,0,0-3.1-4,16.6,16.6,0,0,0-4-2.6h0L0,7.2a17.6,17.6,0,0,0,4.2-3A15.1,15.1,0,0,0,7,.4H192.8a15.3,15.3,0,0,0,3.1,3.9,15.5,15.5,0,0,0,4,2.6h0V53a15.9,15.9,0,0,0-4.2,2.9,18,18,0,0,0-2.8,3.8h0Z" transform="translate(1 0.9)" fill="url(#Degradado_sin_nombre_27)"/><path d="M6.3,48.2" transform="translate(1 0.9)" fill="none" stroke-miterlimit="10" stroke="url(#Degradado_sin_nombre_44)"/><path d="M6.2,11.4" transform="translate(1 0.9)" fill="none" stroke-miterlimit="10" stroke="url(#Degradado_sin_nombre_44-2)"/><path d="M0,6.8" transform="translate(1 0.9)" fill="none" stroke-miterlimit="10" stroke="url(#Degradado_sin_nombre_44-3)"/><path d="M12,5.8" transform="translate(1 0.9)" fill="none" stroke-miterlimit="10" stroke="url(#Degradado_sin_nombre_44-4)"/><path d="M7,.1" transform="translate(1 0.9)" fill="none" stroke-miterlimit="10" stroke="url(#Degradado_sin_nombre_44-5)"/><line x1="7.9" y1="1" x2="193.8" y2="0.9" fill="none" stroke-miterlimit="10" stroke="url(#Degradado_sin_nombre_42)"/><line x1="1" y1="7.7" x2="1.2" y2="53.9" fill="none" stroke-miterlimit="10" stroke="url(#Degradado_sin_nombre_42-2)"/><line x1="7.2" y1="12.3" x2="7.3" y2="49.1" fill="none" stroke-miterlimit="10" stroke="url(#Degradado_sin_nombre_42-3)"/><line x1="13" y1="6.7" x2="189" y2="6.8" fill="none" stroke-miterlimit="10" stroke="url(#Degradado_sin_nombre_42-4)"/><line x1="194.9" y1="12.3" x2="194.7" y2="49" fill="none" stroke-miterlimit="10" stroke="url(#Degradado_sin_nombre_37)"/><line x1="200.9" y1="7.5" x2="200.9" y2="53.5" fill="none" stroke-miterlimit="10" stroke="url(#Degradado_sin_nombre_37-2)"/><line x1="13.1" y1="54.6" x2="188.9" y2="54.6" fill="none" stroke-miterlimit="10" stroke="url(#Degradado_sin_nombre_30)"/><line x1="8.4" y1="60.5" x2="194" y2="60.3" fill="none" stroke-miterlimit="10" stroke="url(#Degradado_sin_nombre_30-2)"/><path d="M0,6.8" transform="translate(1 0.9)" fill="none" stroke="#b07a3f" stroke-miterlimit="10"/><path d="M6.2,11.4,0,6.8A15.9,15.9,0,0,0,4.2,3.9,18,18,0,0,0,7,.1H7l5,5.7h0A5.9,5.9,0,0,1,10.3,9a8.2,8.2,0,0,1-4.1,2.4Z" transform="translate(1 0.9)" fill="none" stroke="#b07a3f" stroke-miterlimit="10"/><path d="M7.4,59.6" transform="translate(1 0.9)" fill="none" stroke="#7d452f" stroke-miterlimit="10"/><path d="M12.2,53.7,7.4,59.6a15.3,15.3,0,0,0-3.1-3.9,15.5,15.5,0,0,0-4-2.6h0l6-4.9h0a9.8,9.8,0,0,1,3.4,1.6,8.8,8.8,0,0,1,2.5,3.9Z" transform="translate(1 0.9)" fill="none" stroke="#7d452f" stroke-miterlimit="10"/><path d="M200,52.6" transform="translate(1 0.9)" fill="none" stroke="#c98a49" stroke-miterlimit="10"/><path d="M193.8,48.1l6.2,4.5a17.6,17.6,0,0,0-4.2,3,15.1,15.1,0,0,0-2.8,3.8h0l-5.1-5.7h0a7.7,7.7,0,0,1,1.7-3.2,8.8,8.8,0,0,1,4.2-2.4Z" transform="translate(1 0.9)" fill="none" stroke="#c98a49" stroke-miterlimit="10"/><path d="M192.8,0" transform="translate(1 0.9)" fill="none" stroke="#7d452f" stroke-miterlimit="10"/><path d="M188,5.9,192.8,0a17.3,17.3,0,0,0,3.1,4,16.6,16.6,0,0,0,4,2.6h0l-6,4.8h0a7.1,7.1,0,0,1-3.4-1.6A7.2,7.2,0,0,1,188,5.9Z" transform="translate(1 0.9)" fill="none" stroke="#7d452f" stroke-miterlimit="10"/></g></g></svg>